M48
; DRILL file {KiCad 8.0.1} date 2024-10-20T11:36:03+0200
; FORMAT={-:-/ absolute / metric / decimal}
; #@! TF.CreationDate,2024-10-20T11:36:03+02:00
; #@! TF.GenerationSoftware,Kicad,Pcbnew,8.0.1
; #@! TF.FileFunction,Plated,1,2,PTH
FMAT,2
METRIC
; #@! TA.AperFunction,Plated,PTH,ViaDrill
T1C0.300
; #@! TA.AperFunction,Plated,PTH,ViaDrill
T2C0.400
; #@! TA.AperFunction,Plated,PTH,ComponentDrill
T3C0.800
; #@! TA.AperFunction,Plated,PTH,ComponentDrill
T4C1.000
; #@! TA.AperFunction,Plated,PTH,ComponentDrill
T5C1.300
; #@! TA.AperFunction,Plated,PTH,ComponentDrill
T6C1.500
; #@! TA.AperFunction,Plated,PTH,ComponentDrill
T7C1.700
; #@! TA.AperFunction,Plated,PTH,ComponentDrill
T8C3.450
%
G90
G05
T1
X122.034Y-81.153
X122.047Y-115.57
X123.005Y-81.897
X123.018Y-116.314
X149.5Y-96.75
X158.25Y-119.25
X158.75Y-113.75
X158.75Y-116.25
X179.0Y-105.75
T2
X62.7Y-74.8
X62.865Y-89.408
X62.9Y-125.0
X64.55Y-101.55
X64.65Y-92.3
X65.95Y-105.3
X67.1Y-90.55
X68.072Y-102.616
X68.75Y-93.6
X69.0Y-67.25
X69.0Y-129.4
X69.65Y-106.3
X70.5Y-133.5
X71.0Y-64.8
X72.009Y-99.949
X72.75Y-108.5
X73.7Y-132.9
X74.7Y-65.1
X74.75Y-110.5
X75.75Y-80.25
X76.75Y-101.2
X76.75Y-103.9
X77.0Y-72.0
X77.75Y-66.0
X77.8Y-131.35
X79.375Y-67.945
X79.5Y-81.75
X81.534Y-130.05
X81.915Y-69.469
X82.55Y-65.532
X82.804Y-103.124
X82.931Y-96.393
X83.0Y-122.0
X83.312Y-73.152
X83.439Y-113.284
X83.566Y-107.696
X84.0Y-77.25
X84.582Y-116.84
X84.6Y-135.0
X84.709Y-88.265
X85.217Y-81.323
X87.122Y-99.822
X87.63Y-129.794
X87.757Y-108.331
X87.757Y-112.903
X88.138Y-120.904
X88.35Y-132.35
X88.519Y-82.423
X88.646Y-123.952
X88.9Y-116.967
X90.043Y-64.897
X90.043Y-78.486
X90.17Y-74.4
X90.17Y-120.777
X92.583Y-116.84
X93.218Y-83.185
X93.218Y-120.396
X93.472Y-100.203
X93.98Y-79.878
X93.98Y-114.173
X94.488Y-92.583
X94.5Y-135.1
X94.615Y-96.774
X94.742Y-128.143
X94.8Y-132.35
X95.377Y-75.946
X95.631Y-110.617
X95.631Y-112.522
X95.758Y-94.742
X95.758Y-106.299
X95.885Y-115.697
X96.012Y-81.407
X97.5Y-102.5
X97.65Y-68.4
X97.65Y-71.75
X97.993Y-105.308
X98.1Y-64.7
X98.679Y-82.931
X98.679Y-117.221
X98.933Y-124.968
X99.06Y-99.822
X99.187Y-90.678
X99.187Y-129.286
X101.854Y-117.983
X102.743Y-83.439
X103.7Y-84.9
X103.9Y-135.1
X104.292Y-90.627
X105.283Y-119.634
X105.41Y-118.11
X105.537Y-102.489
X105.918Y-83.312
X106.299Y-88.011
X106.553Y-64.897
X107.696Y-78.74
X108.839Y-102.743
X108.839Y-103.886
X109.22Y-87.249
X109.22Y-94.869
X109.626Y-88.951
X109.855Y-102.743
X109.855Y-103.886
X109.931Y-128.575
X110.49Y-110.109
X110.871Y-102.743
X110.871Y-103.886
X110.9Y-132.35
X111.1Y-125.07
X111.125Y-88.519
X111.3Y-72.45
X111.75Y-68.3
X111.912Y-92.913
X112.014Y-89.764
X113.7Y-135.1
X114.55Y-100.1
X114.554Y-122.428
X114.681Y-87.249
X115.0Y-89.5
X117.602Y-102.743
X117.704Y-95.25
X117.754Y-97.739
X117.856Y-90.678
X118.6Y-64.7
X119.126Y-105.725
X119.253Y-75.819
X119.253Y-122.301
X119.761Y-89.154
X120.45Y-132.35
X120.85Y-71.65
X120.904Y-100.33
X121.031Y-107.315
X122.022Y-128.575
X122.174Y-125.5
X123.05Y-77.239
X123.063Y-111.656
X123.19Y-88.265
X123.317Y-102.743
X123.825Y-122.428
X124.35Y-132.4
X124.955Y-72.771
X124.968Y-107.188
X125.3Y-135.1
X125.476Y-125.5
X125.527Y-129.235
X126.225Y-80.645
X126.238Y-115.062
X126.492Y-107.061
X126.873Y-121.793
X127.0Y-103.25
X127.762Y-99.314
X128.184Y-81.956
X128.184Y-116.373
X128.372Y-129.286
X128.397Y-86.995
X128.397Y-120.015
X128.524Y-121.793
X128.6Y-64.8
X128.6Y-68.45
X128.7Y-90.0
X129.75Y-125.5
X129.794Y-88.9
X129.794Y-132.4
X129.921Y-72.898
X130.778Y-101.455
X130.81Y-96.393
X130.937Y-93.599
X130.937Y-103.505
X131.064Y-105.537
X131.445Y-111.163
X132.207Y-116.078
X132.461Y-81.534
X133.8Y-109.0
X134.9Y-93.7
X135.765Y-94.768
X136.1Y-97.4
X136.8Y-135.2
X137.0Y-108.0
X137.922Y-121.539
X138.176Y-64.516
X138.2Y-104.7
X139.85Y-104.8
X140.0Y-121.5
X141.224Y-79.451
X141.25Y-115.1
X141.25Y-125.25
X141.25Y-129.25
X141.732Y-92.583
X141.734Y-113.766
X141.75Y-121.75
X142.037Y-65.176
X142.113Y-89.662
X142.25Y-130.75
X142.4Y-108.1
X142.494Y-85.344
X142.595Y-110.9
X142.951Y-82.334
X143.129Y-70.104
X143.25Y-73.75
X143.256Y-84.023
X143.75Y-132.25
X143.795Y-122.955
X144.424Y-89.357
X144.45Y-91.8
X144.75Y-119.5
X144.8Y-93.3
X144.9Y-111.2
X144.907Y-66.421
X145.0Y-125.75
X145.0Y-129.159
X145.25Y-123.25
X145.25Y-133.25
X145.3Y-135.1
X145.339Y-83.363
X146.177Y-116.078
X146.431Y-80.62
X146.45Y-96.65
X147.1Y-105.7
X149.7Y-101.2
X151.0Y-101.8
X151.25Y-115.25
X151.333Y-78.892
X151.75Y-100.5
X152.0Y-110.0
X153.25Y-99.5
X153.5Y-103.25
X154.0Y-101.25
X154.25Y-95.0
X154.5Y-124.5
X155.25Y-102.75
X155.25Y-112.25
X155.5Y-96.25
X156.464Y-64.389
X157.0Y-97.5
X157.0Y-101.0
X158.0Y-104.25
X158.0Y-121.25
X158.5Y-75.5
X158.5Y-78.5
X158.5Y-81.0
X158.5Y-83.5
X158.5Y-87.0
X158.5Y-89.5
X158.5Y-92.25
X158.5Y-94.75
X158.5Y-106.5
X158.6Y-135.4
X161.671Y-67.5
X163.0Y-83.0
X163.0Y-89.25
X163.25Y-118.5
X163.5Y-102.0
X163.5Y-108.75
X163.75Y-105.25
X163.75Y-121.0
X164.0Y-95.75
X164.25Y-111.75
X164.75Y-114.25
X164.75Y-116.25
X165.25Y-89.25
X165.5Y-92.5
X165.75Y-102.25
X165.75Y-118.5
X166.083Y-108.5
X166.5Y-95.75
X166.624Y-67.564
X166.75Y-105.25
X167.25Y-89.25
X167.25Y-112.25
X167.5Y-115.75
X168.0Y-102.25
X168.783Y-64.389
X169.0Y-99.0
X169.25Y-92.5
X169.25Y-95.75
X169.5Y-105.25
X169.5Y-113.5
X169.7Y-135.4
X170.0Y-108.5
X171.5Y-99.0
X172.25Y-95.75
X173.5Y-134.5
X173.75Y-102.25
X174.75Y-99.0
X175.5Y-69.0
X175.75Y-133.5
X176.75Y-111.0
X178.25Y-77.5
X178.734Y-85.766
X178.75Y-66.0
X178.75Y-81.0
X178.75Y-83.5
X178.75Y-88.25
X178.75Y-90.5
X178.75Y-93.0
X178.75Y-95.25
X178.75Y-97.5
X178.75Y-103.75
X178.75Y-108.75
X178.75Y-113.0
X178.75Y-115.75
X178.75Y-119.25
X178.75Y-121.75
X178.75Y-124.0
X179.066Y-133.966
X179.5Y-128.75
X179.5Y-131.0
X180.75Y-126.5
X181.5Y-69.5
X182.25Y-134.0
X182.75Y-66.0
X183.25Y-107.5
X183.75Y-110.75
X184.2Y-135.4
X184.6Y-90.0
X185.0Y-78.25
X186.25Y-69.0
X186.25Y-84.75
X186.25Y-92.5
X186.5Y-108.0
X189.0Y-66.0
X189.75Y-133.0
X190.25Y-119.9
X191.25Y-85.0
X191.5Y-109.0
X191.75Y-69.0
X191.75Y-77.25
X192.0Y-99.25
X192.25Y-96.5
X192.75Y-130.75
X193.0Y-88.0
X193.0Y-92.5
X194.183Y-134.493
X194.25Y-66.25
X194.25Y-99.75
X194.25Y-106.5
X194.25Y-108.75
X194.5Y-73.75
X194.5Y-79.25
X195.75Y-117.0
X196.25Y-98.75
X196.75Y-85.0
X197.0Y-69.0
X197.104Y-131.445
X197.25Y-77.25
X198.628Y-134.366
X199.25Y-124.0
X199.39Y-129.286
X200.5Y-101.0
X202.25Y-126.0
X203.5Y-114.25
X203.75Y-77.25
X203.75Y-91.25
X203.75Y-109.5
X204.0Y-85.5
X204.25Y-119.75
X204.75Y-100.0
X205.232Y-128.397
X205.359Y-123.825
T3
X77.4Y-90.27
X77.4Y-95.35
X79.475Y-123.525
X79.475Y-128.605
X79.94Y-92.81
X82.015Y-126.065
T4
X160.564Y-75.09
X160.564Y-77.63
X160.564Y-80.17
X160.564Y-82.71
X160.564Y-85.25
X160.564Y-87.79
X160.564Y-90.33
X160.564Y-92.87
X160.564Y-95.41
X160.564Y-97.95
X160.564Y-100.49
X160.564Y-103.03
X160.564Y-105.57
X160.564Y-108.11
X160.564Y-110.65
X160.564Y-113.19
X160.564Y-115.73
X160.564Y-118.27
X160.564Y-120.81
X160.564Y-123.35
X180.884Y-75.09
X180.884Y-77.63
X180.884Y-80.17
X180.884Y-82.71
X180.884Y-85.25
X180.884Y-87.79
X180.884Y-90.33
X180.884Y-92.87
X180.884Y-95.41
X180.884Y-97.95
X180.884Y-100.49
X180.884Y-103.03
X180.884Y-105.57
X180.884Y-108.11
X180.884Y-110.65
X180.884Y-113.19
X180.884Y-115.73
X180.884Y-118.27
X180.884Y-120.81
X180.884Y-123.35
T5
X67.65Y-90.55
X67.65Y-108.55
X70.9Y-94.55
X70.9Y-112.55
X72.15Y-86.55
X72.15Y-104.55
T6
X64.95Y-121.6
X64.99Y-128.28
X65.25Y-70.81
X65.29Y-77.49
X68.39Y-124.88
X68.41Y-124.83
X68.69Y-74.09
X68.71Y-74.07
X71.55Y-121.59
X71.6Y-128.17
X71.85Y-70.8
X71.9Y-77.38
X124.46Y-94.234
T7
X65.87Y-122.29
X65.87Y-127.37
X66.17Y-71.53
X66.17Y-76.61
X70.95Y-122.29
X70.95Y-127.37
X71.25Y-71.53
X71.25Y-76.61
X121.92Y-91.694
X121.92Y-96.774
X127.0Y-91.694
X127.0Y-96.774
T8
X68.15Y-83.3
X68.15Y-115.8
M30
